<svg width="650" height="267" viewBox="0 0 650 267" fill="none" xmlns="http://www.w3.org/2000/svg">
<rect width="650" height="267" rx="48" fill="#7D5DC1"/>
<path d="M247.732 98.2843L247.808 134.097C247.811 135.612 248.418 137.065 249.495 138.134C250.571 139.203 252.029 139.802 253.549 139.799C255.068 139.796 256.524 139.191 257.596 138.117C258.668 137.043 259.268 135.588 259.265 134.072L259.189 98.26C259.186 96.7444 258.579 95.2921 257.503 94.2227C256.426 93.1532 254.968 92.5542 253.448 92.5574C251.929 92.5607 250.473 93.1658 249.402 94.2398C248.33 95.3138 247.729 96.7687 247.732 98.2843ZM274.609 77.8483C278.819 73.6301 281.681 68.2613 282.833 62.4204C283.985 56.5795 283.375 50.5291 281.08 45.0342C278.785 39.5394 274.908 34.8469 269.94 31.5501C264.971 28.2534 259.135 26.5006 253.168 26.5133C247.201 26.5259 241.372 28.3035 236.417 31.6212C231.463 34.939 227.606 39.6479 225.335 45.1524C223.063 50.657 222.479 56.71 223.655 62.5459C224.832 68.3818 227.716 73.7385 231.945 77.9387C237.618 83.5633 245.297 86.7127 253.295 86.6958C261.294 86.6788 268.959 83.4969 274.609 77.8483ZM239.975 43.4427C243.03 40.3849 247.053 38.4783 251.358 38.0476C255.664 37.617 259.986 38.6889 263.588 41.0809C267.191 43.473 269.85 47.037 271.114 51.1659C272.377 55.2947 272.167 59.733 270.518 63.7244C268.869 67.7159 265.885 71.0136 262.072 73.0557C258.26 75.0979 253.855 75.7581 249.61 74.9239C245.364 74.0898 241.54 71.8128 238.788 68.481C236.036 65.1492 234.528 60.9686 234.519 56.6516C234.507 54.1993 234.984 51.769 235.92 49.5016C236.857 47.2342 238.235 45.1748 239.975 43.4427Z" fill="white"/>
<path d="M247.732 98.2843L247.808 134.097C247.811 135.612 248.418 137.065 249.495 138.134C250.571 139.203 252.029 139.802 253.549 139.799C255.068 139.796 256.524 139.191 257.596 138.117C258.668 137.043 259.268 135.588 259.265 134.072L259.189 98.26C259.186 96.7444 258.579 95.2921 257.503 94.2227C256.426 93.1532 254.968 92.5542 253.448 92.5574C251.929 92.5607 250.473 93.1658 249.402 94.2398C248.33 95.3138 247.729 96.7687 247.732 98.2843ZM274.609 77.8483C278.819 73.6301 281.681 68.2613 282.833 62.4204C283.985 56.5795 283.375 50.5291 281.08 45.0342C278.785 39.5394 274.908 34.8469 269.94 31.5501C264.971 28.2534 259.135 26.5006 253.168 26.5133C247.201 26.5259 241.372 28.3035 236.417 31.6212C231.463 34.939 227.606 39.6479 225.335 45.1524C223.063 50.657 222.479 56.71 223.655 62.5459C224.832 68.3818 227.716 73.7385 231.945 77.9387C237.618 83.5633 245.297 86.7127 253.295 86.6958C261.294 86.6788 268.959 83.4969 274.609 77.8483ZM239.975 43.4427C243.03 40.3849 247.053 38.4783 251.358 38.0476C255.664 37.617 259.986 38.6889 263.588 41.0809C267.191 43.473 269.85 47.037 271.114 51.1659C272.377 55.2947 272.167 59.733 270.518 63.7244C268.869 67.7159 265.885 71.0136 262.072 73.0557C258.26 75.0979 253.855 75.7581 249.61 74.9239C245.364 74.0898 241.54 71.8128 238.788 68.481C236.036 65.1492 234.528 60.9686 234.519 56.6516C234.507 54.1993 234.984 51.769 235.92 49.5016C236.857 47.2342 238.235 45.1748 239.975 43.4427Z" fill="white"/>
<path d="M357.953 77.8482C362.163 73.6301 365.026 68.2613 366.177 62.4204C367.329 56.5795 366.719 50.5291 364.424 45.0342C362.129 39.5393 358.252 34.8468 353.284 31.5501C348.316 28.2534 342.479 26.5006 336.512 26.5132C330.545 26.5259 324.716 28.3034 319.762 31.6212C314.807 34.939 310.951 39.6479 308.679 45.1524C306.407 50.657 305.823 56.71 306.999 62.5459C308.176 68.3818 311.061 73.7385 315.289 77.9387C320.963 83.5633 328.641 86.7127 336.64 86.6958C344.638 86.6788 352.303 83.4969 357.953 77.8482ZM323.319 43.4427C326.374 40.3849 330.397 38.4782 334.702 38.0476C339.008 37.6169 343.33 38.6889 346.932 41.0809C350.535 43.4729 353.194 47.037 354.458 51.1659C355.721 55.2947 355.511 59.733 353.862 63.7244C352.214 67.7158 349.229 71.0136 345.416 73.0557C341.604 75.0978 337.199 75.7581 332.954 74.9239C328.708 74.0897 324.884 71.8128 322.132 68.481C319.381 65.1492 317.872 60.9686 317.864 56.6516C317.852 54.1992 318.328 51.769 319.264 49.5016C320.201 47.2342 321.579 45.1747 323.319 43.4427Z" fill="white"/>
<path d="M357.953 77.8482C362.163 73.6301 365.026 68.2613 366.177 62.4204C367.329 56.5795 366.719 50.5291 364.424 45.0342C362.129 39.5393 358.252 34.8468 353.284 31.5501C348.316 28.2534 342.479 26.5006 336.512 26.5132C330.545 26.5259 324.716 28.3034 319.762 31.6212C314.807 34.939 310.951 39.6479 308.679 45.1524C306.407 50.657 305.823 56.71 306.999 62.5459C308.176 68.3818 311.061 73.7385 315.289 77.9387C320.963 83.5633 328.641 86.7127 336.64 86.6958C344.638 86.6788 352.303 83.4969 357.953 77.8482ZM323.319 43.4427C326.374 40.3849 330.397 38.4782 334.702 38.0476C339.008 37.6169 343.33 38.6889 346.932 41.0809C350.535 43.4729 353.194 47.037 354.458 51.1659C355.721 55.2947 355.511 59.733 353.862 63.7244C352.214 67.7158 349.229 71.0136 345.416 73.0557C341.604 75.0978 337.199 75.7581 332.954 74.9239C328.708 74.0897 324.884 71.8128 322.132 68.481C319.381 65.1492 317.872 60.9686 317.864 56.6516C317.852 54.1992 318.328 51.769 319.264 49.5016C320.201 47.2342 321.579 45.1747 323.319 43.4427Z" fill="white"/>
<path d="M415.899 98.2845L415.975 134.097C415.978 135.612 416.585 137.065 417.661 138.134C418.738 139.204 420.196 139.803 421.715 139.799C423.235 139.796 424.69 139.191 425.762 138.117C426.834 137.043 427.435 135.588 427.432 134.072L427.356 98.2602C427.352 96.7445 426.746 95.2923 425.669 94.2228C424.593 93.1534 423.134 92.5544 421.615 92.5576C420.096 92.5608 418.64 93.166 417.568 94.24C416.496 95.314 415.896 96.7688 415.899 98.2845ZM442.776 77.8484C446.986 73.6303 449.848 68.2614 451 62.4205C452.152 56.5796 451.542 50.5292 449.247 45.0343C446.952 39.5395 443.075 34.847 438.106 31.5502C433.138 28.2535 427.302 26.5007 421.335 26.5134C415.368 26.526 409.539 28.3036 404.584 31.6213C399.63 34.9391 395.773 39.648 393.501 45.1525C391.23 50.6571 390.645 56.7101 391.822 62.546C392.998 68.3819 395.883 73.7387 400.112 77.9389C405.785 83.5635 413.464 86.7129 421.462 86.6959C429.461 86.679 437.126 83.497 442.776 77.8484ZM408.142 43.4428C411.197 40.385 415.219 38.4784 419.525 38.0477C423.831 37.6171 428.153 38.689 431.755 41.0811C435.357 43.4731 438.017 47.0371 439.28 51.166C440.544 55.2948 440.333 59.7331 438.685 63.7245C437.036 67.716 434.051 71.0137 430.239 73.0558C426.426 75.098 422.022 75.7582 417.776 74.924C413.531 74.0899 409.706 71.8129 406.955 68.4811C404.203 65.1493 402.695 60.9687 402.686 56.6517C402.674 54.1994 403.15 51.7691 404.087 49.5017C405.023 47.2343 406.402 45.1749 408.142 43.4428Z" fill="white"/>
<path d="M415.899 98.2845L415.975 134.097C415.978 135.612 416.585 137.065 417.661 138.134C418.738 139.204 420.196 139.803 421.715 139.799C423.235 139.796 424.69 139.191 425.762 138.117C426.834 137.043 427.435 135.588 427.432 134.072L427.356 98.2602C427.352 96.7445 426.746 95.2923 425.669 94.2228C424.593 93.1534 423.134 92.5544 421.615 92.5576C420.096 92.5608 418.64 93.166 417.568 94.24C416.496 95.314 415.896 96.7688 415.899 98.2845ZM442.776 77.8484C446.986 73.6303 449.848 68.2614 451 62.4205C452.152 56.5796 451.542 50.5292 449.247 45.0343C446.952 39.5395 443.075 34.847 438.106 31.5502C433.138 28.2535 427.302 26.5007 421.335 26.5134C415.368 26.526 409.539 28.3036 404.584 31.6213C399.63 34.9391 395.773 39.648 393.501 45.1525C391.23 50.6571 390.645 56.7101 391.822 62.546C392.998 68.3819 395.883 73.7387 400.112 77.9389C405.785 83.5635 413.464 86.7129 421.462 86.6959C429.461 86.679 437.126 83.497 442.776 77.8484ZM408.142 43.4428C411.197 40.385 415.219 38.4784 419.525 38.0477C423.831 37.6171 428.153 38.689 431.755 41.0811C435.357 43.4731 438.017 47.0371 439.28 51.166C440.544 55.2948 440.333 59.7331 438.685 63.7245C437.036 67.716 434.051 71.0137 430.239 73.0558C426.426 75.098 422.022 75.7582 417.776 74.924C413.531 74.0899 409.706 71.8129 406.955 68.4811C404.203 65.1493 402.695 60.9687 402.686 56.6517C402.674 54.1994 403.15 51.7691 404.087 49.5017C405.023 47.2343 406.402 45.1749 408.142 43.4428Z" fill="white"/>
<path d="M271.527 110L235.715 110C234.199 110 232.746 110.603 231.674 111.678C230.602 112.752 230 114.209 230 115.728C230 117.247 230.602 118.704 231.674 119.779C232.746 120.853 234.199 121.457 235.715 121.457H271.527C273.043 121.457 274.496 120.853 275.568 119.779C276.64 118.704 277.242 117.247 277.242 115.728C277.242 114.209 276.64 112.752 275.568 111.678C274.496 110.603 273.043 110 271.527 110Z" fill="white"/>
<path d="M271.527 110L235.715 110C234.199 110 232.746 110.603 231.674 111.678C230.602 112.752 230 114.209 230 115.728C230 117.247 230.602 118.704 231.674 119.779C232.746 120.853 234.199 121.457 235.715 121.457H271.527C273.043 121.457 274.496 120.853 275.568 119.779C276.64 118.704 277.242 117.247 277.242 115.728C277.242 114.209 276.64 112.752 275.568 111.678C274.496 110.603 273.043 110 271.527 110Z" fill="white"/>
<path d="M439.527 110L403.715 110C402.199 110 400.746 110.603 399.674 111.678C398.602 112.752 398 114.209 398 115.728C398 117.247 398.602 118.704 399.674 119.779C400.746 120.853 402.199 121.457 403.715 121.457H439.527C441.043 121.457 442.496 120.853 443.568 119.779C444.64 118.704 445.242 117.247 445.242 115.728C445.242 114.209 444.64 112.752 443.568 111.678C442.496 110.603 441.043 110 439.527 110Z" fill="white"/>
<path d="M439.527 110L403.715 110C402.199 110 400.746 110.603 399.674 111.678C398.602 112.752 398 114.209 398 115.728C398 117.247 398.602 118.704 399.674 119.779C400.746 120.853 402.199 121.457 403.715 121.457H439.527C441.043 121.457 442.496 120.853 443.568 119.779C444.64 118.704 445.242 117.247 445.242 115.728C445.242 114.209 444.64 112.752 443.568 111.678C442.496 110.603 441.043 110 439.527 110Z" fill="white"/>
<path d="M74.2835 221V175.162H87.1835L87.6135 181.182C88.8748 178.946 90.6235 177.169 92.8595 175.85C95.0955 174.531 97.6181 173.872 100.427 173.872C103.409 173.872 106.046 174.617 108.339 176.108C110.69 177.541 112.525 179.577 113.843 182.214C115.277 179.749 117.283 177.742 119.863 176.194C122.443 174.646 125.396 173.872 128.721 173.872C132.047 173.872 134.942 174.675 137.407 176.28C139.873 177.885 141.765 180.179 143.083 183.16C144.402 186.084 145.061 189.581 145.061 193.652V221H131.043V195.372C131.043 192.62 130.441 190.47 129.237 188.922C128.033 187.317 126.371 186.514 124.249 186.514C122.759 186.514 121.44 186.887 120.293 187.632C119.204 188.377 118.315 189.409 117.627 190.728C116.997 192.047 116.681 193.537 116.681 195.2V221H102.663V195.372C102.663 192.62 102.061 190.47 100.857 188.922C99.6535 187.317 97.9908 186.514 95.8695 186.514C94.3788 186.514 93.0601 186.887 91.9135 187.632C90.8241 188.377 89.9355 189.409 89.2475 190.728C88.6168 192.047 88.3015 193.537 88.3015 195.2V221H74.2835ZM167.663 222.29C165.369 222.29 163.248 221.917 161.299 221.172C159.349 220.484 157.658 219.509 156.225 218.248C154.791 216.987 153.673 215.496 152.871 213.776C152.068 211.999 151.667 210.078 151.667 208.014C151.667 205.09 152.441 202.51 153.989 200.274C155.594 198.038 157.801 196.318 160.611 195.114C163.477 193.853 166.803 193.222 170.587 193.222C172.421 193.222 174.084 193.365 175.575 193.652C177.065 193.939 178.585 194.397 180.133 195.028V192.706C180.133 190.47 179.473 188.693 178.155 187.374C176.893 185.998 175.173 185.31 172.995 185.31C171.389 185.31 169.927 185.711 168.609 186.514C167.29 187.259 166.373 188.291 165.857 189.61L153.301 187.46C153.759 185.453 154.591 183.619 155.795 181.956C156.999 180.293 158.489 178.86 160.267 177.656C162.101 176.452 164.108 175.535 166.287 174.904C168.465 174.216 170.787 173.872 173.253 173.872C176.291 173.872 179.043 174.359 181.509 175.334C184.031 176.251 186.21 177.599 188.045 179.376C189.879 181.096 191.284 183.16 192.259 185.568C193.233 187.919 193.721 190.527 193.721 193.394V221H181.165L180.821 215.582C179.674 217.589 177.954 219.223 175.661 220.484C173.367 221.688 170.701 222.29 167.663 222.29ZM165.427 207.154C165.427 208.53 165.971 209.677 167.061 210.594C168.207 211.454 169.698 211.884 171.533 211.884C173.195 211.884 174.657 211.54 175.919 210.852C177.237 210.164 178.269 209.218 179.015 208.014C179.76 206.81 180.133 205.463 180.133 203.972V203.542C179.101 203.083 177.983 202.739 176.779 202.51C175.575 202.223 174.371 202.08 173.167 202.08C170.759 202.08 168.867 202.539 167.491 203.456C166.115 204.373 165.427 205.606 165.427 207.154ZM221.83 222.29C216.67 222.29 212.685 220.885 209.876 218.076C207.124 215.209 205.748 211.11 205.748 205.778V186.6H198.18V175.162H205.748V159.51H219.766V175.162H231.548V186.6H219.766V204.058C219.766 206.065 220.196 207.613 221.056 208.702C221.916 209.734 223.235 210.25 225.012 210.25C225.929 210.25 226.904 210.135 227.936 209.906C229.025 209.619 230.057 209.247 231.032 208.788L233.182 219.452C231.691 220.255 230 220.914 228.108 221.43C226.216 222.003 224.123 222.29 221.83 222.29ZM260.483 222.29C257.158 222.29 254.062 221.717 251.195 220.57C248.386 219.366 245.92 217.703 243.799 215.582C241.735 213.403 240.101 210.881 238.897 208.014C237.75 205.09 237.177 201.908 237.177 198.468C237.177 194.971 237.779 191.731 238.983 188.75C240.187 185.769 241.85 183.16 243.971 180.924C246.092 178.688 248.586 176.968 251.453 175.764C254.377 174.503 257.502 173.872 260.827 173.872C264.324 173.872 267.506 174.531 270.373 175.85C273.297 177.169 275.734 179.032 277.683 181.44C279.69 183.848 281.066 186.686 281.811 189.954L268.223 192.19C267.478 190.413 266.446 189.037 265.127 188.062C263.808 187.03 262.289 186.514 260.569 186.514C258.792 186.514 257.215 187.03 255.839 188.062C254.52 189.037 253.46 190.413 252.657 192.19C251.854 193.967 251.453 195.974 251.453 198.21C251.453 200.446 251.826 202.424 252.571 204.144C253.374 205.864 254.463 207.211 255.839 208.186C257.215 209.161 258.792 209.648 260.569 209.648C262.346 209.648 263.952 209.161 265.385 208.186C266.876 207.211 267.965 205.807 268.653 203.972L282.241 206.208C281.725 208.616 280.779 210.823 279.403 212.83C278.084 214.779 276.45 216.471 274.501 217.904C272.609 219.337 270.459 220.427 268.051 221.172C265.643 221.917 263.12 222.29 260.483 222.29ZM288.696 221V156.672H302.714V180.15C304.09 178.201 305.838 176.681 307.96 175.592C310.138 174.445 312.604 173.872 315.356 173.872C318.624 173.872 321.462 174.675 323.87 176.28C326.335 177.885 328.227 180.15 329.546 183.074C330.922 185.941 331.61 189.352 331.61 193.308V221H317.592V195.286C317.592 192.591 316.961 190.47 315.7 188.922C314.496 187.317 312.804 186.514 310.626 186.514C309.078 186.514 307.702 186.887 306.498 187.632C305.351 188.377 304.434 189.409 303.746 190.728C303.058 191.989 302.714 193.423 302.714 195.028V221H288.696ZM358.067 221V156.672H372.085V180.15C373.461 178.201 375.209 176.681 377.331 175.592C379.509 174.445 381.975 173.872 384.727 173.872C387.995 173.872 390.833 174.675 393.241 176.28C395.706 177.885 397.598 180.15 398.917 183.074C400.293 185.941 400.981 189.352 400.981 193.308V221H386.963V195.286C386.963 192.591 386.332 190.47 385.071 188.922C383.867 187.317 382.175 186.514 379.997 186.514C378.449 186.514 377.073 186.887 375.869 187.632C374.722 188.377 373.805 189.409 373.117 190.728C372.429 191.989 372.085 193.423 372.085 195.028V221H358.067ZM423.563 222.29C421.27 222.29 419.148 221.917 417.199 221.172C415.25 220.484 413.558 219.509 412.125 218.248C410.692 216.987 409.574 215.496 408.771 213.776C407.968 211.999 407.567 210.078 407.567 208.014C407.567 205.09 408.341 202.51 409.889 200.274C411.494 198.038 413.702 196.318 416.511 195.114C419.378 193.853 422.703 193.222 426.487 193.222C428.322 193.222 429.984 193.365 431.475 193.652C432.966 193.939 434.485 194.397 436.033 195.028V192.706C436.033 190.47 435.374 188.693 434.055 187.374C432.794 185.998 431.074 185.31 428.895 185.31C427.29 185.31 425.828 185.711 424.509 186.514C423.19 187.259 422.273 188.291 421.757 189.61L409.201 187.46C409.66 185.453 410.491 183.619 411.695 181.956C412.899 180.293 414.39 178.86 416.167 177.656C418.002 176.452 420.008 175.535 422.187 174.904C424.366 174.216 426.688 173.872 429.153 173.872C432.192 173.872 434.944 174.359 437.409 175.334C439.932 176.251 442.11 177.599 443.945 179.376C445.78 181.096 447.184 183.16 448.159 185.568C449.134 187.919 449.621 190.527 449.621 193.394V221H437.065L436.721 215.582C435.574 217.589 433.854 219.223 431.561 220.484C429.268 221.688 426.602 222.29 423.563 222.29ZM421.327 207.154C421.327 208.53 421.872 209.677 422.961 210.594C424.108 211.454 425.598 211.884 427.433 211.884C429.096 211.884 430.558 211.54 431.819 210.852C433.138 210.164 434.17 209.218 434.915 208.014C435.66 206.81 436.033 205.463 436.033 203.972V203.542C435.001 203.083 433.883 202.739 432.679 202.51C431.475 202.223 430.271 202.08 429.067 202.08C426.659 202.08 424.767 202.539 423.391 203.456C422.015 204.373 421.327 205.606 421.327 207.154ZM480.186 222.29C476.861 222.29 473.765 221.717 470.898 220.57C468.089 219.366 465.623 217.703 463.502 215.582C461.438 213.403 459.804 210.881 458.6 208.014C457.453 205.09 456.88 201.908 456.88 198.468C456.88 194.971 457.482 191.731 458.686 188.75C459.89 185.769 461.553 183.16 463.674 180.924C465.795 178.688 468.289 176.968 471.156 175.764C474.08 174.503 477.205 173.872 480.53 173.872C484.027 173.872 487.209 174.531 490.076 175.85C493 177.169 495.437 179.032 497.386 181.44C499.393 183.848 500.769 186.686 501.514 189.954L487.926 192.19C487.181 190.413 486.149 189.037 484.83 188.062C483.511 187.03 481.992 186.514 480.272 186.514C478.495 186.514 476.918 187.03 475.542 188.062C474.223 189.037 473.163 190.413 472.36 192.19C471.557 193.967 471.156 195.974 471.156 198.21C471.156 200.446 471.529 202.424 472.274 204.144C473.077 205.864 474.166 207.211 475.542 208.186C476.918 209.161 478.495 209.648 480.272 209.648C482.049 209.648 483.655 209.161 485.088 208.186C486.579 207.211 487.668 205.807 488.356 203.972L501.944 206.208C501.428 208.616 500.482 210.823 499.106 212.83C497.787 214.779 496.153 216.471 494.204 217.904C492.312 219.337 490.162 220.427 487.754 221.172C485.346 221.917 482.823 222.29 480.186 222.29ZM508.399 221V156.672H522.417V193.48L537.553 175.162H553.463L535.919 195.458L555.527 221H538.241L522.417 198.468V221H508.399ZM567.875 221.344C566.27 221.344 564.808 220.971 563.489 220.226C562.228 219.423 561.224 218.391 560.479 217.13C559.734 215.811 559.361 214.378 559.361 212.83C559.361 211.282 559.734 209.877 560.479 208.616C561.224 207.297 562.228 206.265 563.489 205.52C564.808 204.717 566.27 204.316 567.875 204.316C569.48 204.316 570.914 204.717 572.175 205.52C573.494 206.265 574.526 207.297 575.271 208.616C576.016 209.877 576.389 211.282 576.389 212.83C576.389 214.378 576.016 215.811 575.271 217.13C574.526 218.391 573.494 219.423 572.175 220.226C570.914 220.971 569.48 221.344 567.875 221.344Z" fill="white"/>
<path d="M320.753 107.887L346.186 133.154C347.263 134.223 348.722 134.822 350.242 134.819C351.762 134.816 353.218 134.211 354.29 133.136C355.362 132.062 355.963 130.607 355.96 129.091C355.957 127.574 355.35 126.122 354.273 125.052L328.839 99.7857C327.762 98.7159 326.304 98.1167 324.784 98.1199C323.264 98.1231 321.808 98.7285 320.736 99.8028C319.663 100.877 319.063 102.332 319.066 103.849C319.069 105.365 319.676 106.817 320.753 107.887Z" fill="white"/>
<path d="M354.183 107.762L328.856 133.136C328.325 133.668 327.695 134.091 327 134.379C326.305 134.668 325.561 134.818 324.808 134.819C324.056 134.821 323.31 134.675 322.614 134.389C321.919 134.103 321.286 133.683 320.753 133.154C320.22 132.624 319.796 131.995 319.507 131.302C319.217 130.609 319.067 129.866 319.066 129.115C319.064 128.364 319.211 127.62 319.497 126.926C319.784 126.232 320.205 125.601 320.736 125.069L333.399 112.382L339.73 106.039L346.062 99.6952C346.593 99.1632 347.224 98.7408 347.918 98.452C348.613 98.1633 349.358 98.0138 350.11 98.0123C350.863 98.0107 351.608 98.1569 352.304 98.4427C353 98.7285 353.632 99.1483 354.166 99.678C354.699 100.208 355.122 100.837 355.412 101.53C355.701 102.223 355.851 102.966 355.852 103.717C355.854 104.467 355.707 105.211 355.421 105.905C355.134 106.599 354.714 107.23 354.183 107.762Z" fill="white"/>
<path d="M354.183 107.762L328.856 133.136C328.325 133.668 327.695 134.091 327 134.379C326.305 134.668 325.561 134.818 324.808 134.819C324.056 134.821 323.31 134.675 322.614 134.389C321.919 134.103 321.286 133.683 320.753 133.154C320.22 132.624 319.796 131.995 319.507 131.302C319.217 130.609 319.067 129.866 319.066 129.115C319.064 128.364 319.211 127.62 319.497 126.926C319.784 126.232 320.205 125.601 320.736 125.069L333.399 112.382L339.73 106.039L346.062 99.6952C346.593 99.1632 347.224 98.7408 347.918 98.452C348.613 98.1633 349.358 98.0138 350.11 98.0123C350.863 98.0107 351.608 98.1569 352.304 98.4427C353 98.7285 353.632 99.1483 354.166 99.678C354.699 100.208 355.122 100.837 355.412 101.53C355.701 102.223 355.851 102.966 355.852 103.717C355.854 104.467 355.707 105.211 355.421 105.905C355.134 106.599 354.714 107.23 354.183 107.762Z" fill="white"/>
<path d="M320.753 107.887L346.186 133.154C347.263 134.223 348.722 134.822 350.242 134.819C351.762 134.816 353.218 134.211 354.29 133.136C355.362 132.062 355.963 130.607 355.96 129.091C355.957 127.574 355.35 126.122 354.273 125.052L328.839 99.7857C327.762 98.7159 326.304 98.1167 324.784 98.1199C323.264 98.1231 321.808 98.7285 320.736 99.8028C319.663 100.877 319.063 102.332 319.066 103.849C319.069 105.365 319.676 106.817 320.753 107.887Z" fill="white"/>
<path d="M354.183 107.762L328.856 133.136C328.325 133.668 327.695 134.091 327 134.379C326.305 134.668 325.561 134.818 324.808 134.819C324.056 134.821 323.31 134.675 322.614 134.389C321.919 134.103 321.286 133.683 320.753 133.154C320.22 132.624 319.796 131.995 319.507 131.302C319.217 130.609 319.067 129.866 319.066 129.115C319.064 128.364 319.211 127.62 319.497 126.926C319.784 126.232 320.205 125.601 320.736 125.069L333.399 112.382L339.73 106.039L346.062 99.6952C346.593 99.1632 347.224 98.7408 347.918 98.452C348.613 98.1633 349.358 98.0138 350.11 98.0123C350.863 98.0107 351.608 98.1569 352.304 98.4427C353 98.7285 353.632 99.1483 354.166 99.678C354.699 100.208 355.122 100.837 355.412 101.53C355.701 102.223 355.851 102.966 355.852 103.717C355.854 104.467 355.707 105.211 355.421 105.905C355.134 106.599 354.714 107.23 354.183 107.762Z" fill="white"/>
<path d="M354.183 107.762L328.856 133.136C328.325 133.668 327.695 134.091 327 134.379C326.305 134.668 325.561 134.818 324.808 134.819C324.056 134.821 323.31 134.675 322.614 134.389C321.919 134.103 321.286 133.683 320.753 133.154C320.22 132.624 319.796 131.995 319.507 131.302C319.217 130.609 319.067 129.866 319.066 129.115C319.064 128.364 319.211 127.62 319.497 126.926C319.784 126.232 320.205 125.601 320.736 125.069L333.399 112.382L339.73 106.039L346.062 99.6952C346.593 99.1632 347.224 98.7408 347.918 98.452C348.613 98.1633 349.358 98.0138 350.11 98.0123C350.863 98.0107 351.608 98.1569 352.304 98.4427C353 98.7285 353.632 99.1483 354.166 99.678C354.699 100.208 355.122 100.837 355.412 101.53C355.701 102.223 355.851 102.966 355.852 103.717C355.854 104.467 355.707 105.211 355.421 105.905C355.134 106.599 354.714 107.23 354.183 107.762Z" fill="white"/>
</svg>
