<svg width="160" height="160" viewBox="0 0 160 160" fill="none" xmlns="http://www.w3.org/2000/svg">
<path d="M2.00732 80H0.50732H2.00732ZM31.2573 80H29.7573H31.2573ZM80.0119 128.75L80.012 130.25L80.0119 128.75ZM128.757 80H130.257H128.757ZM79.9999 0.5C58.9151 0.5 38.6948 8.87587 23.7871 23.785L25.9086 25.9063C40.2538 11.5598 59.7111 3.5 80.0001 3.5L79.9999 0.5ZM23.7871 23.785C8.87931 38.6942 0.505341 58.9153 0.50732 80H3.50732C3.50542 59.7109 11.5634 40.2529 25.9086 25.9063L23.7871 23.785ZM0.50732 80C0.509298 101.085 8.88706 121.306 23.7976 136.215L25.9187 134.094C11.5708 119.747 3.50922 100.289 3.50732 80H0.50732ZM23.7976 136.215C38.7081 151.124 58.9301 159.5 80.0148 159.5L80.0145 156.5C59.7254 156.5 40.2666 148.44 25.9187 134.094L23.7976 136.215ZM80.0148 159.5C101.099 159.5 121.32 151.124 136.228 136.215L134.106 134.094C119.761 148.44 100.304 156.5 80.0145 156.5L80.0148 159.5ZM136.228 136.215C151.135 121.306 159.509 101.085 159.507 80H156.507C156.509 100.289 148.451 119.747 134.106 134.094L136.228 136.215ZM159.507 80C159.505 58.9153 151.128 38.6942 136.217 23.785L134.096 25.9063C148.444 40.2529 156.505 59.7109 156.507 80H159.507ZM136.217 23.785C121.306 8.87587 101.085 0.5 79.9999 0.5L80.0001 3.5C100.289 3.5 119.748 11.5598 134.096 25.9063L136.217 23.785ZM80.0026 29.75C66.6755 29.75 53.8947 35.0442 44.4719 44.4679L46.5934 46.5892C55.4537 37.7281 67.4714 32.75 80.0029 32.75L80.0026 29.75ZM44.4719 44.4679C35.0491 53.8916 29.7561 66.6729 29.7573 80H32.7573C32.7561 67.4685 37.7331 55.4503 46.5934 46.5892L44.4719 44.4679ZM29.7573 80C29.7586 93.3271 35.054 106.108 44.4785 115.532L46.5997 113.411C37.7377 104.55 32.7585 92.5315 32.7573 80H29.7573ZM44.4785 115.532C53.9031 124.956 66.6849 130.25 80.012 130.25L80.0118 127.25C67.4803 127.25 55.4616 122.272 46.5997 113.411L44.4785 115.532ZM80.012 130.25C93.3392 130.25 106.12 124.956 115.543 115.532L113.421 113.411C104.561 122.272 92.5432 127.25 80.0118 127.25L80.012 130.25ZM115.543 115.532C124.966 106.108 130.259 93.3271 130.257 80H127.257C127.258 92.5315 122.282 104.55 113.421 113.411L115.543 115.532ZM130.257 80C130.256 66.6729 124.961 53.8916 115.536 44.4679L113.415 46.5892C122.277 55.4503 127.256 67.4685 127.257 80H130.257ZM115.536 44.4679C106.112 35.0442 93.3297 29.75 80.0026 29.75L80.0029 32.75C92.5344 32.75 104.553 37.7281 113.415 46.5892L115.536 44.4679ZM49.8165 39.8287C33.3043 53.0395 24.1178 68.8296 22.4517 87.1767C20.7904 105.469 26.6236 126.094 39.7114 148.994L42.316 147.506C29.3996 124.906 23.8539 104.906 25.4394 87.4483C27.0198 70.0454 35.7055 54.9605 51.6908 42.1713L49.8165 39.8287ZM110.198 120.171C126.704 106.966 135.896 91.3527 137.563 73.1745C139.225 55.0532 133.389 34.6013 120.303 11.7056L117.699 13.194C130.618 35.7983 136.16 55.6215 134.575 72.9003C132.996 90.1222 124.315 105.034 108.324 117.829L110.198 120.171Z" fill="white"/>
<path d="M47.7353 83V70.22H50.7953L54.4493 77.042L58.1213 70.22H61.1093V83H58.1033V75.512L55.5113 80.336H53.3333L50.7413 75.512V83H47.7353ZM62.4283 83L67.4863 70.22H70.8163L75.8743 83H72.6343L71.7343 80.516H66.4603L65.5603 83H62.4283ZM67.4143 77.888H70.7803L69.0883 73.226L67.4143 77.888ZM78.6926 83V72.992H75.2006V70.22H85.3166V72.992H81.8246V83H78.6926ZM92.5087 83.36C91.7647 83.36 91.0627 83.252 90.4027 83.036C89.7547 82.82 89.1607 82.514 88.6207 82.118C88.0927 81.722 87.6367 81.254 87.2527 80.714C86.8687 80.162 86.5687 79.55 86.3527 78.878C86.1487 78.194 86.0467 77.468 86.0467 76.7C86.0467 75.932 86.1487 75.206 86.3527 74.522C86.5687 73.826 86.8687 73.196 87.2527 72.632C87.6487 72.056 88.1167 71.564 88.6567 71.156C89.1967 70.736 89.7907 70.418 90.4387 70.202C91.0987 69.974 91.7947 69.86 92.5267 69.86C93.2107 69.86 93.8587 69.956 94.4707 70.148C95.0947 70.34 95.6527 70.616 96.1447 70.976C96.6487 71.324 97.0747 71.75 97.4227 72.254C97.7827 72.746 98.0527 73.304 98.2327 73.928L95.1727 74.612C94.9087 74.012 94.5427 73.55 94.0747 73.226C93.6067 72.902 93.0727 72.74 92.4727 72.74C92.0167 72.74 91.5907 72.842 91.1947 73.046C90.8107 73.238 90.4747 73.514 90.1867 73.874C89.8987 74.222 89.6767 74.636 89.5207 75.116C89.3647 75.584 89.2867 76.1 89.2867 76.664C89.2867 77.216 89.3647 77.726 89.5207 78.194C89.6767 78.662 89.8987 79.07 90.1867 79.418C90.4747 79.754 90.8167 80.018 91.2127 80.21C91.6087 80.39 92.0407 80.48 92.5087 80.48C93.1327 80.48 93.6787 80.324 94.1467 80.012C94.6267 79.688 95.0107 79.22 95.2987 78.608L98.3587 79.292C98.1187 80.132 97.7167 80.858 97.1527 81.47C96.6007 82.07 95.9287 82.538 95.1367 82.874C94.3447 83.198 93.4687 83.36 92.5087 83.36ZM99.8896 83V70.22H103.022V75.008H108.134V70.22H111.266V83H108.134V77.78H103.022V83H99.8896Z" fill="white"/>
<path d="M64.692 108.814L64.568 108.969C64.072 109.093 63.421 109.155 62.615 109.155L60.631 109.124C60.569 109.145 60.4864 109.155 60.383 109.155C60.259 109.155 60.166 109.134 60.104 109.093C60.0627 109.072 60.0317 109.052 60.011 109.031C59.8457 107.915 59.763 106.448 59.763 104.629C59.763 104.443 59.7527 103.916 59.732 103.048C59.7114 102.18 59.6494 101.353 59.546 100.568C58.9674 100.465 58.4507 100.413 57.996 100.413C57.4174 100.413 56.818 100.475 56.198 100.599C56.1154 101.178 56.074 101.839 56.074 102.583C56.074 103.017 56.0947 103.689 56.136 104.598C56.1774 105.507 56.198 106.179 56.198 106.613C56.198 107.481 56.1464 108.225 56.043 108.845C56.0017 108.845 55.981 108.866 55.981 108.907C55.6917 109.093 55.3094 109.186 54.834 109.186C54.5654 109.186 54.1624 109.145 53.625 109.062C53.0877 108.979 52.726 108.938 52.54 108.938C52.2714 108.938 52.013 108.99 51.765 109.093C51.4137 108.969 51.238 107.801 51.238 105.59V103.792C51.238 102.366 51.1967 100.248 51.114 97.437C51.0314 94.6263 50.99 92.4977 50.99 91.051C50.99 90.493 51.0004 89.7387 51.021 88.788C51.0417 87.8167 51.0624 87.331 51.083 87.331V87.362L51.238 87.176C51.4447 87.176 51.641 87.1863 51.827 87.207C52.0337 87.2277 52.2507 87.238 52.478 87.238L53.377 87.207C53.7904 87.1657 54.1004 87.145 54.307 87.145C54.9477 87.145 55.3197 87.238 55.423 87.424C55.5264 88.106 55.5987 88.8397 55.64 89.625C55.6814 90.4103 55.702 90.9063 55.702 91.113C55.7434 92.8283 55.8364 94.1097 55.981 94.957H55.95L56.043 95.453C56.4564 95.5357 56.9317 95.577 57.469 95.577C58.027 95.577 58.5954 95.5253 59.174 95.422C59.3187 93.5 59.391 91.8363 59.391 90.431C59.391 89.4597 59.36 88.478 59.298 87.486C59.484 87.3 59.918 87.145 60.6 87.021C61.282 86.897 61.8917 86.835 62.429 86.835C62.801 86.835 63.1007 86.8763 63.328 86.959H63.7C63.7 86.959 63.7517 87.0107 63.855 87.114L64.692 108.814ZM63.328 108.783C63.6794 108.783 64.0307 108.752 64.382 108.69L63.545 87.269C63.4004 87.269 63.2764 87.2587 63.173 87.238C61.933 87.238 60.7447 87.3517 59.608 87.579C59.67 88.509 59.701 89.439 59.701 90.369C59.701 91.8363 59.6287 93.562 59.484 95.546C59.3807 95.6493 59.329 95.701 59.329 95.701H59.391C59.2257 95.701 58.8744 95.732 58.337 95.794C57.8204 95.856 57.407 95.887 57.097 95.887C56.5804 95.887 56.136 95.794 55.764 95.608C55.6194 94.678 55.5057 93.2933 55.423 91.454C55.3404 89.718 55.237 88.416 55.113 87.548C54.9684 87.5273 54.7514 87.517 54.462 87.517C54.214 87.517 53.842 87.5377 53.346 87.579C52.85 87.6203 52.4987 87.641 52.292 87.641C51.9407 87.641 51.641 87.5997 51.393 87.517C51.331 89.005 51.3 90.4827 51.3 91.95C51.3 95.0293 51.3207 97.7367 51.362 100.072C51.424 102.387 51.5377 104.66 51.703 106.892C51.703 107.161 51.7134 107.367 51.734 107.512C51.734 108.07 51.7547 108.483 51.796 108.752C52.0234 108.69 52.2404 108.659 52.447 108.659C52.695 108.659 53.0877 108.7 53.625 108.783C54.121 108.866 54.5034 108.907 54.772 108.907C55.144 108.907 55.4644 108.835 55.733 108.69C55.8364 108.07 55.888 107.305 55.888 106.396L55.857 104.443C55.8157 103.575 55.795 102.924 55.795 102.49C55.795 101.725 55.8364 101.043 55.919 100.444C56.0844 100.361 56.4254 100.279 56.942 100.196C57.4587 100.113 57.9754 100.072 58.492 100.072C59.1327 100.072 59.5667 100.155 59.794 100.32C59.856 100.382 59.9077 100.692 59.949 101.25C59.9904 101.808 60.011 102.232 60.011 102.521C60.011 103.926 60.0214 105.104 60.042 106.055C60.0834 106.985 60.166 107.915 60.29 108.845H60.476C60.7447 108.762 61.1064 108.721 61.561 108.721C61.933 108.721 62.2224 108.731 62.429 108.752L63.328 108.783ZM79.1698 109C79.0664 109.207 78.4464 109.31 77.3098 109.31C76.8551 109.31 76.3384 109.279 75.7598 109.217C75.1811 109.176 74.8298 109.083 74.7058 108.938C74.4991 108.463 74.2924 107.708 74.0858 106.675C73.9618 106.055 73.8378 105.549 73.7138 105.156C73.6104 104.743 73.4658 104.35 73.2798 103.978C73.1144 103.978 72.9388 103.968 72.7528 103.947C72.5668 103.926 72.3911 103.916 72.2258 103.916C72.1431 103.957 72.0398 103.978 71.9158 103.978L71.5438 103.947C71.3578 104.34 71.2234 104.794 71.1408 105.311C71.0788 105.807 71.0374 106.107 71.0168 106.21C70.9341 106.851 70.8308 107.398 70.7068 107.853C70.6034 108.287 70.4381 108.69 70.2108 109.062L70.1488 109.093L70.0248 109.155H70.0558L69.7768 109.186L67.9168 109.155C66.8834 109.114 66.0878 109.093 65.5298 109.093L65.4988 109.062L65.4368 108.907C65.5401 108.556 65.6124 108.122 65.6538 107.605C65.6951 107.233 65.7364 106.975 65.7778 106.83C66.9558 99.3693 68.4231 92.849 70.1798 87.269L70.3348 87.145H70.4898C70.6138 87.083 71.2751 87.052 72.4738 87.052C72.7631 87.0313 73.0524 87.021 73.3418 87.021C73.6518 87.021 73.9204 87.0107 74.1478 86.99C74.3131 87.176 74.4578 87.5687 74.5818 88.168C74.7264 88.7467 74.8091 89.0877 74.8298 89.191C74.9331 89.7077 74.9848 89.966 74.9848 89.966C75.7908 93.438 77.0308 99.049 78.7048 106.799L79.1698 108.907V109ZM77.3408 109C77.8988 109 78.3948 108.959 78.8288 108.876L76.8758 99.979C75.7804 95.081 75.0468 91.7743 74.6748 90.059C74.6541 89.9557 74.5611 89.594 74.3958 88.974C74.1891 88.23 74.0651 87.672 74.0238 87.3C73.0524 87.4033 71.8641 87.455 70.4588 87.455C68.5988 93.3657 67.1418 99.855 66.0878 106.923C66.0671 107.088 66.0258 107.378 65.9638 107.791C65.9224 108.184 65.8604 108.525 65.7778 108.814C67.1418 108.876 68.1131 108.907 68.6918 108.907C69.3324 108.907 69.7561 108.886 69.9628 108.845C70.1694 108.514 70.3244 108.132 70.4278 107.698C70.5518 107.243 70.6654 106.706 70.7688 106.086C70.9341 105.011 71.1201 104.226 71.3268 103.73L71.4508 103.637H72.1018C72.1638 103.596 72.2878 103.575 72.4738 103.575C72.6598 103.575 72.8458 103.596 73.0318 103.637C73.2178 103.658 73.3831 103.699 73.5278 103.761C73.7964 104.278 73.9928 104.846 74.1168 105.466C74.2614 106.086 74.3441 106.448 74.3648 106.551C74.5508 107.502 74.7368 108.225 74.9228 108.721C75.1294 108.742 75.3774 108.783 75.6668 108.845C75.9561 108.886 76.1938 108.917 76.3798 108.938C76.7931 108.979 77.1134 109 77.3408 109ZM71.6678 100.32C71.4198 100.32 71.2234 100.248 71.0788 100.103C71.4714 95.701 71.8744 93.5 72.2878 93.5H72.4118C72.7424 93.8927 72.9801 94.523 73.1248 95.391C73.2901 96.259 73.4244 97.3543 73.5278 98.677C73.5484 98.9043 73.5691 99.142 73.5898 99.39C73.6104 99.638 73.6414 99.886 73.6828 100.134L73.5278 100.289L71.6678 100.32ZM71.9778 100.041C72.2671 100.041 72.7218 100.02 73.3418 99.979C73.0938 97.8917 72.8768 96.3003 72.6908 95.205C72.6701 95.1223 72.6391 94.9157 72.5978 94.585C72.5564 94.2543 72.4738 94.0167 72.3498 93.872C72.1224 94.5747 71.9468 95.298 71.8228 96.042C71.7194 96.7653 71.6161 97.6953 71.5128 98.832L71.3888 100.01C71.5128 100.031 71.7091 100.041 71.9778 100.041ZM84.5887 92.601L84.5577 92.694L84.5267 92.725C84.4027 93.1177 84.3407 93.6447 84.3407 94.306L84.3717 95.298C84.3924 95.484 84.4027 95.732 84.4027 96.042C84.4027 96.3933 84.3821 96.941 84.3407 97.685C84.2994 98.4703 84.2787 99.0697 84.2787 99.483C84.2787 100.723 84.4234 101.818 84.7127 102.769C85.0227 103.699 85.6014 104.164 86.4487 104.164C86.7794 104.164 87.0894 104.092 87.3787 103.947C87.6681 103.782 87.9057 103.554 88.0917 103.265C88.2157 103.058 88.2984 102.738 88.3397 102.304C88.3811 101.849 88.4017 101.581 88.4017 101.498C88.4224 101.023 88.4534 100.671 88.4947 100.444C88.5361 100.196 88.6084 100.041 88.7117 99.979C88.8977 100.041 89.0941 100.072 89.3007 100.072C89.4661 100.072 89.7141 100.051 90.0447 100.01C90.3341 99.948 90.6027 99.917 90.8507 99.917C91.7394 99.917 92.4111 99.9997 92.8657 100.165C93.1551 100.475 93.2997 101.24 93.2997 102.459C93.2997 103.782 93.0001 104.98 92.4007 106.055C91.8014 107.13 90.9231 107.987 89.7657 108.628C88.6084 109.248 87.2341 109.558 85.6427 109.558C83.4521 109.558 81.8194 108.99 80.7447 107.853C80.3521 107.44 80.0627 106.975 79.8767 106.458C79.7114 105.921 79.6081 105.445 79.5667 105.032C79.5461 104.598 79.5254 103.895 79.5047 102.924C79.4634 101.725 79.4427 100.806 79.4427 100.165V96.755L79.4737 94.554C79.4944 94.0787 79.5047 93.3553 79.5047 92.384C79.4634 92.2807 79.4427 92.1153 79.4427 91.888C79.4427 91.4747 79.5874 90.9167 79.8767 90.214C80.4347 88.8293 81.1477 87.827 82.0157 87.207C82.9044 86.587 84.1754 86.277 85.8287 86.277C87.1514 86.277 88.3914 86.6283 89.5487 87.331C90.7061 88.0337 91.6257 88.974 92.3077 90.152C93.0104 91.3093 93.3617 92.539 93.3617 93.841C93.3617 94.6263 93.2481 95.3497 93.0207 96.011C92.8141 96.2177 92.2044 96.321 91.1917 96.321C89.8277 96.321 88.8254 96.166 88.1847 95.856C88.1227 95.5873 88.0711 95.143 88.0297 94.523C88.0091 93.9443 87.9574 93.4793 87.8747 93.128C87.8127 92.7767 87.6474 92.477 87.3787 92.229C87.1307 91.981 86.7381 91.857 86.2007 91.857C86.0767 91.8983 85.9011 91.9293 85.6737 91.95C85.4464 91.9707 85.2604 92.0017 85.1157 92.043C84.9917 92.0843 84.8677 92.167 84.7437 92.291C84.6611 92.477 84.6094 92.5907 84.5887 92.632V92.601ZM84.5267 92.074C84.8987 91.702 85.4051 91.516 86.0457 91.516C86.7071 91.516 87.2031 91.6813 87.5337 92.012C87.8851 92.322 88.1021 92.694 88.1847 93.128C88.2881 93.562 88.3501 94.0993 88.3707 94.74C88.3707 94.8433 88.3811 94.9983 88.4017 95.205C88.4224 95.4117 88.4431 95.577 88.4637 95.701C89.6211 95.9077 90.5304 96.011 91.1917 96.011C91.8324 96.011 92.3491 95.949 92.7417 95.825C92.9691 95.1017 93.0827 94.4093 93.0827 93.748C93.0827 92.508 92.7314 91.3403 92.0287 90.245C91.3467 89.1497 90.4271 88.2713 89.2697 87.61C88.1124 86.9487 86.8517 86.618 85.4877 86.618C84.4337 86.618 83.4727 86.8453 82.6047 87.3C81.7367 87.734 81.0444 88.3747 80.5277 89.222C80.0317 90.0693 79.7837 91.0717 79.7837 92.229C79.8457 92.4357 79.8767 92.725 79.8767 93.097C79.8767 93.7997 79.8457 94.74 79.7837 95.918C79.7424 96.4553 79.7217 96.8997 79.7217 97.251C79.7217 98.0983 79.7424 99.3487 79.7837 101.002L79.8147 102.893C79.8147 103.058 79.8147 103.503 79.8147 104.226C79.8354 104.949 79.9387 105.6 80.1247 106.179C80.3107 106.758 80.5897 107.243 80.9617 107.636C81.9537 108.711 83.4934 109.248 85.5807 109.248C87.1101 109.248 88.4327 108.959 89.5487 108.38C90.6647 107.801 91.5121 107.006 92.0907 105.993C92.6901 104.96 92.9897 103.792 92.9897 102.49C92.9897 101.767 92.8967 101.085 92.7107 100.444C92.5454 100.382 92.2974 100.351 91.9667 100.351C91.6567 100.351 91.4294 100.33 91.2847 100.289C90.8921 100.289 90.5924 100.299 90.3857 100.32L89.4867 100.351C89.1767 100.351 88.9494 100.341 88.8047 100.32C88.7427 100.589 88.7117 100.992 88.7117 101.529C88.7117 102.19 88.6601 102.676 88.5567 102.986C88.3914 103.461 88.1227 103.833 87.7507 104.102C87.3994 104.35 87.0067 104.474 86.5727 104.474C85.6221 104.474 84.9504 104.009 84.5577 103.079C84.1857 102.128 83.9997 100.837 83.9997 99.204C83.9997 98.6253 84.0307 97.561 84.0927 96.011L84.0617 94.647C84.0617 93.345 84.2064 92.508 84.4957 92.136L84.5267 92.074ZM108.157 109.031C107.537 109.134 106.783 109.186 105.894 109.186C105.667 109.186 105.305 109.165 104.809 109.124C104.313 109.083 103.952 109.062 103.724 109.062C103.125 108.318 102.598 107.533 102.143 106.706C101.709 105.859 101.203 104.784 100.624 103.482C100.108 102.345 99.7874 101.653 99.6634 101.405C99.6428 101.694 99.6324 102.128 99.6324 102.707C99.6324 103.72 99.6634 104.743 99.7254 105.776C99.7668 107.14 99.7874 108.163 99.7874 108.845C99.7254 108.99 99.4258 109.093 98.8884 109.155C98.3718 109.238 97.7828 109.279 97.1214 109.279C95.9434 109.279 95.2201 109.145 94.9514 108.876C94.8274 106.706 94.7654 104.526 94.7654 102.335C94.7654 100.682 94.8068 98.181 94.8894 94.833C94.9721 91.5263 95.0134 89.036 95.0134 87.362L95.1684 87.176C96.0778 87.176 96.7598 87.1863 97.2144 87.207L99.3224 87.238C99.3224 87.238 99.3741 87.2897 99.4774 87.393C99.5188 88.9223 99.5394 91.2163 99.5394 94.275L100.159 93.407L100.903 92.322L101.802 90.679C101.885 90.5137 102.123 90.0693 102.515 89.346C102.908 88.602 103.321 87.92 103.755 87.3L103.91 87.207C104.282 87.269 104.654 87.3 105.026 87.3L106.204 87.269C106.473 87.2483 106.866 87.238 107.382 87.238C107.899 87.238 108.188 87.331 108.25 87.517C107.982 88.447 107.63 89.3357 107.196 90.183C106.762 91.0097 106.153 92.0843 105.367 93.407C104.789 94.3783 104.313 95.1947 103.941 95.856C103.59 96.5173 103.27 97.189 102.98 97.871L108.281 108.814L108.157 109.031ZM105.894 108.876C106.638 108.876 107.31 108.835 107.909 108.752L102.701 97.933V97.809C103.156 96.6723 103.952 95.1843 105.088 93.345C105.874 91.981 106.473 90.9063 106.886 90.121C107.3 89.3357 107.641 88.4883 107.909 87.579C107.496 87.5377 107.186 87.517 106.979 87.517L105.925 87.548C105.429 87.5893 105.068 87.61 104.84 87.61C104.613 87.61 104.313 87.5893 103.941 87.548C103.342 88.3953 102.774 89.346 102.236 90.4L101.833 91.237C101.42 92.0637 101.048 92.7663 100.717 93.345C100.387 93.903 100.004 94.399 99.5704 94.833L99.5394 94.926L99.2294 94.833V94.864C99.1881 94.864 99.1674 93.9857 99.1674 92.229L99.1984 89.532C99.1984 88.6433 99.1881 87.982 99.1674 87.548L97.2454 87.517C96.8114 87.4963 96.1708 87.486 95.3234 87.486C95.3234 89.1807 95.2821 91.702 95.1994 95.05C95.1168 98.4393 95.0754 100.981 95.0754 102.676C95.0754 105.053 95.1271 107.078 95.2304 108.752C95.5198 108.876 96.1398 108.938 97.0904 108.938C98.2684 108.938 99.0641 108.866 99.4774 108.721C99.4774 108.06 99.4568 107.068 99.4154 105.745C99.3534 104.753 99.3224 103.751 99.3224 102.738C99.3224 102.325 99.3431 101.705 99.3844 100.878L99.3224 100.754L99.6944 100.785C100.046 101.446 100.469 102.345 100.965 103.482C101.523 104.722 102.009 105.745 102.422 106.551C102.856 107.336 103.352 108.08 103.91 108.783C104.572 108.845 105.233 108.876 105.894 108.876Z" fill="white"/>
<path d="M79.3645 55.799C80.7084 55.8017 81.8729 55.322 82.8258 54.373C83.7784 53.4241 84.2629 52.2617 84.2656 50.9177C84.2683 49.5741 83.7887 48.4096 82.8397 47.4566C81.8906 46.504 80.7281 46.0197 79.3843 46.0169C78.0403 46.0142 76.876 46.4938 75.9232 47.4427C74.9705 48.3916 74.486 49.5542 74.4833 50.8979C74.4805 52.2419 74.9603 53.4064 75.9092 54.3591C76.8584 55.3117 78.021 55.7962 79.3645 55.799V55.799ZM76.7631 48.2859C77.4941 47.5578 78.3507 47.2049 79.3819 47.207C80.413 47.209 81.2683 47.5654 81.9965 48.2965C82.7246 49.0277 83.0777 49.8844 83.0756 50.9153C83.0735 51.9465 82.717 52.8016 81.9859 53.5299C81.2547 54.2581 80.398 54.611 79.3669 54.6089C78.336 54.6068 77.4809 54.2503 76.7525 53.5193C76.0242 52.7882 75.6712 51.9315 75.6733 50.9003C75.6754 49.8694 76.0319 49.0141 76.7631 48.2859Z" fill="white"/>
<path d="M87.9105 61.6494C87.8839 61.2537 87.8293 60.8219 87.7486 60.366C87.6671 59.9066 87.5618 59.4722 87.4356 59.0752C87.305 58.6648 87.1275 58.2595 86.9076 57.8709C86.6795 57.4677 86.4113 57.1163 86.1101 56.8271C85.7951 56.5245 85.4092 56.2809 84.9627 56.1029C84.5178 55.9259 84.0245 55.8356 83.4967 55.8346C83.2894 55.8342 83.0887 55.9188 82.701 56.1701C82.4624 56.325 82.1834 56.5042 81.8718 56.7023C81.6055 56.8713 81.2448 57.0293 80.7994 57.1722C80.3648 57.3119 79.9238 57.3822 79.4884 57.3814C79.0533 57.3805 78.6126 57.3083 78.1783 57.1669C77.7339 57.0224 77.3737 56.8628 77.1085 56.6928C76.8007 56.4953 76.5222 56.315 76.2807 56.1569C75.8943 55.9041 75.694 55.8186 75.4867 55.8182C74.9587 55.8171 74.4652 55.9055 74.0198 56.0809C73.5729 56.2568 73.1859 56.4988 72.8693 56.8004C72.5669 57.0886 72.2973 57.4387 72.0678 57.8409C71.8465 58.2285 71.6672 58.633 71.535 59.0431C71.4073 59.4397 71.3003 59.8734 71.217 60.3325C71.1342 60.7875 71.078 61.2192 71.0498 61.6157C71.0221 62.0035 71.0076 62.407 71.0068 62.8148C71.0047 63.8748 71.3399 64.7337 72.0031 65.3679C72.6581 65.9938 73.5257 66.3122 74.5819 66.3144L84.3599 66.3342C85.4158 66.3363 86.2846 66.0214 86.9423 65.3982C87.6083 64.7671 87.947 63.9093 87.9491 62.849C87.9498 62.4398 87.9368 62.0362 87.9105 61.6494V61.6494ZM86.1236 64.5344C85.6891 64.9462 85.113 65.1457 84.3622 65.1442L74.5843 65.1243C73.8333 65.1228 73.258 64.921 72.8254 64.5076C72.4009 64.1019 72.1953 63.5488 72.1968 62.8172C72.1976 62.4367 72.2109 62.061 72.2367 61.7004C72.2619 61.3466 72.3128 60.958 72.3878 60.5451C72.4619 60.1373 72.556 59.7546 72.6676 59.4083C72.7747 59.0762 72.9205 58.7474 73.1012 58.4308C73.2737 58.129 73.4719 57.8702 73.6904 57.6618C73.8949 57.4668 74.1524 57.3075 74.4557 57.1882C74.7362 57.0778 75.0513 57.0177 75.3932 57.0093C75.4348 57.0315 75.509 57.074 75.629 57.1526C75.8734 57.3125 76.155 57.495 76.4663 57.6947C76.8172 57.9194 77.2695 58.1227 77.81 58.2984C78.3626 58.4783 78.9264 58.5702 79.4861 58.5714C80.0459 58.5725 80.6102 58.4829 81.1632 58.3053C81.7049 58.1315 82.1578 57.9303 82.5101 57.7066C82.8296 57.5034 83.104 57.3273 83.349 57.1682C83.4693 57.0902 83.5436 57.0479 83.5854 57.0259C83.9274 57.0357 84.2423 57.0971 84.5225 57.2086C84.8251 57.3291 85.082 57.4897 85.2856 57.6853C85.5034 57.8944 85.7005 58.154 85.8717 58.4568C86.0513 58.774 86.1959 59.1035 86.3015 59.4358C86.4119 59.783 86.5046 60.1659 86.5769 60.5737C86.6501 60.9876 86.6995 61.3766 86.7233 61.7299L86.7233 61.7302C86.7478 62.0896 86.7597 62.4651 86.7591 62.8467C86.7575 63.5785 86.5497 64.1305 86.1236 64.5344V64.5344Z" fill="white"/>
<path d="M60.3645 55.799C61.7084 55.8017 62.8729 55.322 63.8258 54.373C64.7784 53.4241 65.2629 52.2617 65.2656 50.9177C65.2683 49.5741 64.7887 48.4096 63.8397 47.4566C62.8906 46.504 61.7281 46.0197 60.3843 46.0169C59.0403 46.0142 57.876 46.4938 56.9232 47.4427C55.9705 48.3916 55.486 49.5542 55.4833 50.8979C55.4805 52.2419 55.9603 53.4064 56.9092 54.3591C57.8584 55.3117 59.021 55.7962 60.3645 55.799V55.799ZM57.7631 48.2859C58.4941 47.5578 59.3507 47.2049 60.3819 47.207C61.413 47.209 62.2683 47.5654 62.9965 48.2965C63.7246 49.0277 64.0777 49.8844 64.0756 50.9153C64.0735 51.9465 63.717 52.8016 62.9859 53.5299C62.2547 54.2581 61.398 54.611 60.3669 54.6089C59.336 54.6068 58.4809 54.2503 57.7525 53.5193C57.0242 52.7882 56.6712 51.9315 56.6733 50.9003C56.6754 49.8694 57.0319 49.0141 57.7631 48.2859Z" fill="white"/>
<path d="M68.9105 61.6494C68.8839 61.2537 68.8293 60.8219 68.7486 60.366C68.6671 59.9066 68.5618 59.4722 68.4356 59.0752C68.305 58.6648 68.1275 58.2595 67.9076 57.8709C67.6795 57.4677 67.4113 57.1163 67.1101 56.8271C66.7951 56.5245 66.4092 56.2809 65.9627 56.1029C65.5178 55.9259 65.0245 55.8356 64.4967 55.8346C64.2894 55.8342 64.0887 55.9188 63.701 56.1701C63.4624 56.325 63.1834 56.5042 62.8718 56.7023C62.6055 56.8713 62.2448 57.0293 61.7994 57.1722C61.3648 57.3119 60.9238 57.3822 60.4884 57.3814C60.0533 57.3805 59.6126 57.3083 59.1783 57.1669C58.7339 57.0224 58.3737 56.8628 58.1085 56.6928C57.8007 56.4953 57.5222 56.315 57.2807 56.1569C56.8943 55.9041 56.694 55.8186 56.4867 55.8182C55.9587 55.8171 55.4652 55.9055 55.0198 56.0809C54.5729 56.2568 54.1859 56.4988 53.8693 56.8004C53.5669 57.0886 53.2973 57.4387 53.0678 57.8409C52.8465 58.2285 52.6672 58.633 52.535 59.0431C52.4073 59.4397 52.3003 59.8734 52.217 60.3325C52.1342 60.7875 52.078 61.2192 52.0498 61.6157C52.0221 62.0035 52.0076 62.407 52.0068 62.8148C52.0047 63.8748 52.3399 64.7337 53.0031 65.3679C53.6581 65.9938 54.5257 66.3122 55.5819 66.3144L65.3599 66.3342C66.4158 66.3363 67.2846 66.0214 67.9423 65.3982C68.6083 64.7671 68.947 63.9093 68.9491 62.849C68.9498 62.4398 68.9368 62.0362 68.9105 61.6494V61.6494ZM67.1236 64.5344C66.6891 64.9462 66.113 65.1457 65.3622 65.1442L55.5843 65.1243C54.8333 65.1228 54.258 64.921 53.8254 64.5076C53.4009 64.1019 53.1953 63.5488 53.1968 62.8172C53.1976 62.4367 53.2109 62.061 53.2367 61.7004C53.2619 61.3466 53.3128 60.958 53.3878 60.5451C53.4619 60.1373 53.556 59.7546 53.6676 59.4083C53.7747 59.0762 53.9205 58.7474 54.1012 58.4308C54.2737 58.129 54.4719 57.8702 54.6904 57.6618C54.8949 57.4668 55.1524 57.3075 55.4557 57.1882C55.7362 57.0778 56.0513 57.0177 56.3932 57.0093C56.4348 57.0315 56.509 57.074 56.629 57.1526C56.8734 57.3125 57.155 57.495 57.4663 57.6947C57.8172 57.9194 58.2695 58.1227 58.81 58.2984C59.3626 58.4783 59.9264 58.5702 60.4861 58.5714C61.0459 58.5725 61.6102 58.4829 62.1632 58.3053C62.7049 58.1315 63.1578 57.9303 63.5101 57.7066C63.8296 57.5034 64.104 57.3273 64.349 57.1682C64.4693 57.0902 64.5436 57.0479 64.5854 57.0259C64.9274 57.0357 65.2423 57.0971 65.5225 57.2086C65.8251 57.3291 66.082 57.4897 66.2856 57.6853C66.5034 57.8944 66.7005 58.154 66.8717 58.4568C67.0513 58.774 67.1959 59.1035 67.3015 59.4358C67.4119 59.783 67.5046 60.1659 67.5769 60.5737C67.6501 60.9876 67.6995 61.3766 67.7233 61.7299L67.7233 61.7302C67.7478 62.0896 67.7597 62.4651 67.7591 62.8467C67.7575 63.5785 67.5497 64.1305 67.1236 64.5344V64.5344Z" fill="white"/>
<path d="M97.3645 55.799C98.7084 55.8017 99.8729 55.322 100.826 54.373C101.778 53.4241 102.263 52.2617 102.266 50.9177C102.268 49.5741 101.789 48.4096 100.84 47.4566C99.8906 46.504 98.7281 46.0197 97.3843 46.0169C96.0403 46.0142 94.876 46.4938 93.9232 47.4427C92.9705 48.3916 92.486 49.5542 92.4833 50.8979C92.4805 52.2419 92.9603 53.4064 93.9092 54.3591C94.8584 55.3117 96.021 55.7962 97.3645 55.799V55.799ZM94.7631 48.2859C95.4941 47.5578 96.3507 47.2049 97.3819 47.207C98.413 47.209 99.2683 47.5654 99.9965 48.2965C100.725 49.0277 101.078 49.8844 101.076 50.9153C101.073 51.9465 100.717 52.8016 99.9859 53.5299C99.2547 54.2581 98.398 54.611 97.3669 54.6089C96.336 54.6068 95.4809 54.2503 94.7525 53.5193C94.0242 52.7882 93.6712 51.9315 93.6733 50.9003C93.6754 49.8694 94.0319 49.0141 94.7631 48.2859Z" fill="white"/>
<path d="M105.911 61.6494C105.884 61.2537 105.829 60.8219 105.749 60.366C105.667 59.9066 105.562 59.4722 105.436 59.0752C105.305 58.6648 105.128 58.2595 104.908 57.8709C104.68 57.4677 104.411 57.1163 104.11 56.8271C103.795 56.5245 103.409 56.2809 102.963 56.1029C102.518 55.9259 102.025 55.8356 101.497 55.8346C101.289 55.8342 101.089 55.9188 100.701 56.1701C100.462 56.325 100.183 56.5042 99.8718 56.7023C99.6055 56.8713 99.2448 57.0293 98.7994 57.1722C98.3648 57.3119 97.9238 57.3822 97.4884 57.3814C97.0533 57.3805 96.6126 57.3083 96.1783 57.1669C95.7339 57.0224 95.3737 56.8628 95.1085 56.6928C94.8007 56.4953 94.5222 56.315 94.2807 56.1569C93.8943 55.9041 93.694 55.8186 93.4867 55.8182C92.9587 55.8171 92.4652 55.9055 92.0198 56.0809C91.5729 56.2568 91.1859 56.4988 90.8693 56.8004C90.5669 57.0886 90.2973 57.4387 90.0678 57.8409C89.8465 58.2285 89.6672 58.633 89.535 59.0431C89.4073 59.4397 89.3003 59.8734 89.217 60.3325C89.1342 60.7875 89.078 61.2192 89.0498 61.6157C89.0221 62.0035 89.0076 62.407 89.0068 62.8148C89.0047 63.8748 89.3399 64.7337 90.0031 65.3679C90.6581 65.9938 91.5257 66.3122 92.5819 66.3144L102.36 66.3342C103.416 66.3363 104.285 66.0214 104.942 65.3982C105.608 64.7671 105.947 63.9093 105.949 62.849C105.95 62.4398 105.937 62.0362 105.911 61.6494V61.6494ZM104.124 64.5344C103.689 64.9462 103.113 65.1457 102.362 65.1442L92.5843 65.1243C91.8333 65.1228 91.258 64.921 90.8254 64.5076C90.4009 64.1019 90.1953 63.5488 90.1968 62.8172C90.1976 62.4367 90.2109 62.061 90.2367 61.7004C90.2619 61.3466 90.3128 60.958 90.3878 60.5451C90.4619 60.1373 90.556 59.7546 90.6676 59.4083C90.7747 59.0762 90.9205 58.7474 91.1012 58.4308C91.2737 58.129 91.4719 57.8702 91.6904 57.6618C91.8949 57.4668 92.1524 57.3075 92.4557 57.1882C92.7362 57.0778 93.0513 57.0177 93.3932 57.0093C93.4348 57.0315 93.509 57.074 93.629 57.1526C93.8734 57.3125 94.155 57.495 94.4663 57.6947C94.8172 57.9194 95.2695 58.1227 95.81 58.2984C96.3626 58.4783 96.9264 58.5702 97.4861 58.5714C98.0459 58.5725 98.6102 58.4829 99.1632 58.3053C99.7049 58.1315 100.158 57.9303 100.51 57.7066C100.83 57.5034 101.104 57.3273 101.349 57.1682C101.469 57.0902 101.544 57.0479 101.585 57.0259C101.927 57.0357 102.242 57.0971 102.522 57.2086C102.825 57.3291 103.082 57.4897 103.286 57.6853C103.503 57.8944 103.701 58.154 103.872 58.4568C104.051 58.774 104.196 59.1035 104.302 59.4358C104.412 59.783 104.505 60.1659 104.577 60.5737C104.65 60.9876 104.699 61.3766 104.723 61.7299L104.723 61.7302C104.748 62.0896 104.76 62.4651 104.759 62.8467C104.757 63.5785 104.55 64.1305 104.124 64.5344V64.5344Z" fill="white"/>
</svg>
