<svg width="516" height="209" viewBox="0 0 516 209" fill="none" xmlns="http://www.w3.org/2000/svg">
<path d="M180.732 72.2843L180.808 108.097C180.811 109.612 181.418 111.065 182.495 112.134C183.571 113.203 185.029 113.802 186.549 113.799C188.068 113.796 189.524 113.191 190.596 112.117C191.668 111.043 192.268 109.588 192.265 108.072L192.189 72.26C192.186 70.7443 191.579 69.2921 190.503 68.2226C189.426 67.1532 187.968 66.5542 186.448 66.5574C184.929 66.5606 183.473 67.1658 182.402 68.2398C181.33 69.3138 180.729 70.7686 180.732 72.2843ZM207.609 51.8482C211.819 47.6301 214.681 42.2612 215.833 36.4204C216.985 30.5795 216.375 24.5291 214.08 19.0342C211.785 13.5393 207.908 8.84682 202.94 5.55011C197.971 2.2534 192.135 0.500572 186.168 0.513226C180.201 0.525881 174.372 2.30345 169.417 5.6212C164.463 8.93896 160.606 13.6479 158.335 19.1524C156.063 24.657 155.478 30.71 156.655 36.5459C157.832 42.3818 160.716 47.7385 164.945 51.9387C170.618 57.5633 178.297 60.7127 186.295 60.6957C194.294 60.6788 201.959 57.4968 207.609 51.8482ZM172.975 17.4427C176.03 14.3849 180.053 12.4782 184.358 12.0476C188.664 11.6169 192.986 12.6889 196.588 15.0809C200.191 17.4729 202.85 21.037 204.114 25.1659C205.377 29.2947 205.167 33.733 203.518 37.7244C201.869 41.7158 198.885 45.0135 195.072 47.0557C191.26 49.0978 186.855 49.7581 182.61 48.9239C178.364 48.0897 174.539 45.8128 171.788 42.481C169.036 39.1492 167.528 34.9686 167.519 30.6516C167.507 28.1992 167.984 25.769 168.92 23.5016C169.857 21.2342 171.235 19.1747 172.975 17.4427Z" fill="white"/>
<path d="M180.732 72.2843L180.808 108.097C180.811 109.612 181.418 111.065 182.495 112.134C183.571 113.203 185.029 113.802 186.549 113.799C188.068 113.796 189.524 113.191 190.596 112.117C191.668 111.043 192.268 109.588 192.265 108.072L192.189 72.26C192.186 70.7443 191.579 69.2921 190.503 68.2226C189.426 67.1532 187.968 66.5542 186.448 66.5574C184.929 66.5606 183.473 67.1658 182.402 68.2398C181.33 69.3138 180.729 70.7686 180.732 72.2843ZM207.609 51.8482C211.819 47.6301 214.681 42.2612 215.833 36.4204C216.985 30.5795 216.375 24.5291 214.08 19.0342C211.785 13.5393 207.908 8.84682 202.94 5.55011C197.971 2.2534 192.135 0.500572 186.168 0.513226C180.201 0.525881 174.372 2.30345 169.417 5.6212C164.463 8.93896 160.606 13.6479 158.335 19.1524C156.063 24.657 155.478 30.71 156.655 36.5459C157.832 42.3818 160.716 47.7385 164.945 51.9387C170.618 57.5633 178.297 60.7127 186.295 60.6957C194.294 60.6788 201.959 57.4968 207.609 51.8482ZM172.975 17.4427C176.03 14.3849 180.053 12.4782 184.358 12.0476C188.664 11.6169 192.986 12.6889 196.588 15.0809C200.191 17.4729 202.85 21.037 204.114 25.1659C205.377 29.2947 205.167 33.733 203.518 37.7244C201.869 41.7158 198.885 45.0135 195.072 47.0557C191.26 49.0978 186.855 49.7581 182.61 48.9239C178.364 48.0897 174.539 45.8128 171.788 42.481C169.036 39.1492 167.528 34.9686 167.519 30.6516C167.507 28.1992 167.984 25.769 168.92 23.5016C169.857 21.2342 171.235 19.1747 172.975 17.4427Z" fill="white"/>
<path d="M290.953 51.8482C295.163 47.6301 298.026 42.2612 299.177 36.4204C300.329 30.5795 299.719 24.529 297.424 19.0342C295.129 13.5393 291.252 8.84679 286.284 5.55008C281.316 2.25337 275.479 0.500546 269.512 0.5132C263.545 0.525855 257.716 2.30342 252.762 5.62118C247.807 8.93893 243.951 13.6478 241.679 19.1524C239.407 24.6569 238.823 30.7099 239.999 36.5459C241.176 42.3818 244.061 47.7385 248.289 51.9387C253.963 57.5633 261.641 60.7127 269.64 60.6957C277.638 60.6788 285.303 57.4968 290.953 51.8482ZM256.319 17.4427C259.374 14.3848 263.397 12.4782 267.702 12.0476C272.008 11.6169 276.33 12.6889 279.932 15.0809C283.535 17.4729 286.194 21.037 287.458 25.1658C288.721 29.2947 288.511 33.7329 286.862 37.7244C285.214 41.7158 282.229 45.0135 278.416 47.0557C274.604 49.0978 270.199 49.7581 265.954 48.9239C261.708 48.0897 257.884 45.8128 255.132 42.4809C252.381 39.1491 250.872 34.9685 250.864 30.6515C250.852 28.1992 251.328 25.7689 252.264 23.5015C253.201 21.2341 254.579 19.1747 256.319 17.4427Z" fill="white"/>
<path d="M290.953 51.8482C295.163 47.6301 298.026 42.2612 299.177 36.4204C300.329 30.5795 299.719 24.529 297.424 19.0342C295.129 13.5393 291.252 8.84679 286.284 5.55008C281.316 2.25337 275.479 0.500546 269.512 0.5132C263.545 0.525855 257.716 2.30342 252.762 5.62118C247.807 8.93893 243.951 13.6478 241.679 19.1524C239.407 24.6569 238.823 30.7099 239.999 36.5459C241.176 42.3818 244.061 47.7385 248.289 51.9387C253.963 57.5633 261.641 60.7127 269.64 60.6957C277.638 60.6788 285.303 57.4968 290.953 51.8482ZM256.319 17.4427C259.374 14.3848 263.397 12.4782 267.702 12.0476C272.008 11.6169 276.33 12.6889 279.932 15.0809C283.535 17.4729 286.194 21.037 287.458 25.1658C288.721 29.2947 288.511 33.7329 286.862 37.7244C285.214 41.7158 282.229 45.0135 278.416 47.0557C274.604 49.0978 270.199 49.7581 265.954 48.9239C261.708 48.0897 257.884 45.8128 255.132 42.4809C252.381 39.1491 250.872 34.9685 250.864 30.6515C250.852 28.1992 251.328 25.7689 252.264 23.5015C253.201 21.2341 254.579 19.1747 256.319 17.4427Z" fill="white"/>
<path d="M348.899 72.2844L348.975 108.097C348.978 109.612 349.585 111.065 350.661 112.134C351.738 113.204 353.196 113.803 354.715 113.799C356.235 113.796 357.69 113.191 358.762 112.117C359.834 111.043 360.435 109.588 360.432 108.072L360.356 72.2601C360.352 70.7445 359.746 69.2922 358.669 68.2228C357.593 67.1533 356.134 66.5543 354.615 66.5576C353.096 66.5608 351.64 67.166 350.568 68.24C349.496 69.314 348.896 70.7688 348.899 72.2844ZM375.776 51.8484C379.986 47.6303 382.848 42.2613 384 36.4205C385.152 30.5796 384.542 24.5292 382.247 19.0343C379.952 13.5394 376.075 8.84692 371.106 5.55021C366.138 2.2535 360.302 0.500672 354.335 0.513327C348.368 0.525981 342.539 2.30355 337.584 5.6213C332.63 8.93906 328.773 13.648 326.501 19.1525C324.23 24.6571 323.645 30.7101 324.822 36.546C325.998 42.3819 328.883 47.7387 333.112 51.9389C338.785 57.5635 346.464 60.7129 354.462 60.6959C362.461 60.6789 370.126 57.497 375.776 51.8484ZM341.142 17.4428C344.197 14.385 348.219 12.4783 352.525 12.0477C356.831 11.617 361.153 12.689 364.755 15.081C368.357 17.473 371.017 21.0371 372.28 25.166C373.544 29.2948 373.333 33.7331 371.685 37.7245C370.036 41.7159 367.051 45.0136 363.239 47.0558C359.426 49.0979 355.022 49.7582 350.776 48.924C346.531 48.0898 342.706 45.8129 339.955 42.4811C337.203 39.1493 335.695 34.9687 335.686 30.6517C335.674 28.1993 336.15 25.7691 337.087 23.5017C338.023 21.2343 339.402 19.1748 341.142 17.4428Z" fill="white"/>
<path d="M348.899 72.2844L348.975 108.097C348.978 109.612 349.585 111.065 350.661 112.134C351.738 113.204 353.196 113.803 354.715 113.799C356.235 113.796 357.69 113.191 358.762 112.117C359.834 111.043 360.435 109.588 360.432 108.072L360.356 72.2601C360.352 70.7445 359.746 69.2922 358.669 68.2228C357.593 67.1533 356.134 66.5543 354.615 66.5576C353.096 66.5608 351.64 67.166 350.568 68.24C349.496 69.314 348.896 70.7688 348.899 72.2844ZM375.776 51.8484C379.986 47.6303 382.848 42.2613 384 36.4205C385.152 30.5796 384.542 24.5292 382.247 19.0343C379.952 13.5394 376.075 8.84692 371.106 5.55021C366.138 2.2535 360.302 0.500672 354.335 0.513327C348.368 0.525981 342.539 2.30355 337.584 5.6213C332.63 8.93906 328.773 13.648 326.501 19.1525C324.23 24.6571 323.645 30.7101 324.822 36.546C325.998 42.3819 328.883 47.7387 333.112 51.9389C338.785 57.5635 346.464 60.7129 354.462 60.6959C362.461 60.6789 370.126 57.497 375.776 51.8484ZM341.142 17.4428C344.197 14.385 348.219 12.4783 352.525 12.0477C356.831 11.617 361.153 12.689 364.755 15.081C368.357 17.473 371.017 21.0371 372.28 25.166C373.544 29.2948 373.333 33.7331 371.685 37.7245C370.036 41.7159 367.051 45.0136 363.239 47.0558C359.426 49.0979 355.022 49.7582 350.776 48.924C346.531 48.0898 342.706 45.8129 339.955 42.4811C337.203 39.1493 335.695 34.9687 335.686 30.6517C335.674 28.1993 336.15 25.7691 337.087 23.5017C338.023 21.2343 339.402 19.1748 341.142 17.4428Z" fill="white"/>
<path d="M204.527 84L168.715 84C167.199 84 165.746 84.6035 164.674 85.6777C163.602 86.752 163 88.209 163 89.7282C163 91.2475 163.602 92.7045 164.674 93.7787C165.746 94.853 167.199 95.4565 168.715 95.4565H204.527C206.043 95.4565 207.496 94.853 208.568 93.7787C209.64 92.7045 210.242 91.2475 210.242 89.7282C210.242 88.209 209.64 86.752 208.568 85.6777C207.496 84.6035 206.043 84 204.527 84Z" fill="white"/>
<path d="M204.527 84L168.715 84C167.199 84 165.746 84.6035 164.674 85.6777C163.602 86.752 163 88.209 163 89.7282C163 91.2475 163.602 92.7045 164.674 93.7787C165.746 94.853 167.199 95.4565 168.715 95.4565H204.527C206.043 95.4565 207.496 94.853 208.568 93.7787C209.64 92.7045 210.242 91.2475 210.242 89.7282C210.242 88.209 209.64 86.752 208.568 85.6777C207.496 84.6035 206.043 84 204.527 84Z" fill="white"/>
<path d="M372.527 84L336.715 84C335.199 84 333.746 84.6035 332.674 85.6777C331.602 86.752 331 88.209 331 89.7282C331 91.2475 331.602 92.7045 332.674 93.7787C333.746 94.853 335.199 95.4565 336.715 95.4565H372.527C374.043 95.4565 375.496 94.853 376.568 93.7787C377.64 92.7045 378.242 91.2475 378.242 89.7282C378.242 88.209 377.64 86.752 376.568 85.6777C375.496 84.6035 374.043 84 372.527 84Z" fill="white"/>
<path d="M372.527 84L336.715 84C335.199 84 333.746 84.6035 332.674 85.6777C331.602 86.752 331 88.209 331 89.7282C331 91.2475 331.602 92.7045 332.674 93.7787C333.746 94.853 335.199 95.4565 336.715 95.4565H372.527C374.043 95.4565 375.496 94.853 376.568 93.7787C377.64 92.7045 378.242 91.2475 378.242 89.7282C378.242 88.209 377.64 86.752 376.568 85.6777C375.496 84.6035 374.043 84 372.527 84Z" fill="white"/>
<path d="M7.28346 195V149.162H20.1835L20.6135 155.182C21.8748 152.946 23.6235 151.169 25.8595 149.85C28.0955 148.531 30.6181 147.872 33.4275 147.872C36.4088 147.872 39.0461 148.617 41.3395 150.108C43.6901 151.541 45.5248 153.577 46.8435 156.214C48.2768 153.749 50.2835 151.742 52.8635 150.194C55.4435 148.646 58.3961 147.872 61.7215 147.872C65.0468 147.872 67.9421 148.675 70.4075 150.28C72.8728 151.885 74.7648 154.179 76.0835 157.16C77.4021 160.084 78.0615 163.581 78.0615 167.652V195H64.0435V169.372C64.0435 166.62 63.4415 164.47 62.2375 162.922C61.0335 161.317 59.3708 160.514 57.2495 160.514C55.7588 160.514 54.4401 160.887 53.2935 161.632C52.2041 162.377 51.3155 163.409 50.6275 164.728C49.9968 166.047 49.6815 167.537 49.6815 169.2V195H35.6635V169.372C35.6635 166.62 35.0615 164.47 33.8575 162.922C32.6535 161.317 30.9908 160.514 28.8695 160.514C27.3788 160.514 26.0601 160.887 24.9135 161.632C23.8241 162.377 22.9355 163.409 22.2475 164.728C21.6168 166.047 21.3015 167.537 21.3015 169.2V195H7.28346ZM100.663 196.29C98.3693 196.29 96.248 195.917 94.2987 195.172C92.3493 194.484 90.658 193.509 89.2247 192.248C87.7913 190.987 86.6733 189.496 85.8707 187.776C85.068 185.999 84.6667 184.078 84.6667 182.014C84.6667 179.09 85.4407 176.51 86.9887 174.274C88.594 172.038 90.8013 170.318 93.6107 169.114C96.4773 167.853 99.8027 167.222 103.587 167.222C105.421 167.222 107.084 167.365 108.575 167.652C110.065 167.939 111.585 168.397 113.133 169.028V166.706C113.133 164.47 112.473 162.693 111.155 161.374C109.893 159.998 108.173 159.31 105.995 159.31C104.389 159.31 102.927 159.711 101.609 160.514C100.29 161.259 99.3727 162.291 98.8567 163.61L86.3007 161.46C86.7593 159.453 87.5907 157.619 88.7947 155.956C89.9987 154.293 91.4893 152.86 93.2667 151.656C95.1013 150.452 97.108 149.535 99.2867 148.904C101.465 148.216 103.787 147.872 106.253 147.872C109.291 147.872 112.043 148.359 114.509 149.334C117.031 150.251 119.21 151.599 121.045 153.376C122.879 155.096 124.284 157.16 125.259 159.568C126.233 161.919 126.721 164.527 126.721 167.394V195H114.165L113.821 189.582C112.674 191.589 110.954 193.223 108.661 194.484C106.367 195.688 103.701 196.29 100.663 196.29ZM98.4267 181.154C98.4267 182.53 98.9713 183.677 100.061 184.594C101.207 185.454 102.698 185.884 104.533 185.884C106.195 185.884 107.657 185.54 108.919 184.852C110.237 184.164 111.269 183.218 112.015 182.014C112.76 180.81 113.133 179.463 113.133 177.972V177.542C112.101 177.083 110.983 176.739 109.779 176.51C108.575 176.223 107.371 176.08 106.167 176.08C103.759 176.08 101.867 176.539 100.491 177.456C99.1147 178.373 98.4267 179.606 98.4267 181.154ZM154.83 196.29C149.67 196.29 145.685 194.885 142.876 192.076C140.124 189.209 138.748 185.11 138.748 179.778V160.6H131.18V149.162H138.748V133.51H152.766V149.162H164.548V160.6H152.766V178.058C152.766 180.065 153.196 181.613 154.056 182.702C154.916 183.734 156.235 184.25 158.012 184.25C158.929 184.25 159.904 184.135 160.936 183.906C162.025 183.619 163.057 183.247 164.032 182.788L166.182 193.452C164.691 194.255 163 194.914 161.108 195.43C159.216 196.003 157.123 196.29 154.83 196.29ZM193.483 196.29C190.158 196.29 187.062 195.717 184.195 194.57C181.386 193.366 178.92 191.703 176.799 189.582C174.735 187.403 173.101 184.881 171.897 182.014C170.75 179.09 170.177 175.908 170.177 172.468C170.177 168.971 170.779 165.731 171.983 162.75C173.187 159.769 174.85 157.16 176.971 154.924C179.092 152.688 181.586 150.968 184.453 149.764C187.377 148.503 190.502 147.872 193.827 147.872C197.324 147.872 200.506 148.531 203.373 149.85C206.297 151.169 208.734 153.032 210.683 155.44C212.69 157.848 214.066 160.686 214.811 163.954L201.223 166.19C200.478 164.413 199.446 163.037 198.127 162.062C196.808 161.03 195.289 160.514 193.569 160.514C191.792 160.514 190.215 161.03 188.839 162.062C187.52 163.037 186.46 164.413 185.657 166.19C184.854 167.967 184.453 169.974 184.453 172.21C184.453 174.446 184.826 176.424 185.571 178.144C186.374 179.864 187.463 181.211 188.839 182.186C190.215 183.161 191.792 183.648 193.569 183.648C195.346 183.648 196.952 183.161 198.385 182.186C199.876 181.211 200.965 179.807 201.653 177.972L215.241 180.208C214.725 182.616 213.779 184.823 212.403 186.83C211.084 188.779 209.45 190.471 207.501 191.904C205.609 193.337 203.459 194.427 201.051 195.172C198.643 195.917 196.12 196.29 193.483 196.29ZM221.696 195V130.672H235.714V154.15C237.09 152.201 238.838 150.681 240.96 149.592C243.138 148.445 245.604 147.872 248.356 147.872C251.624 147.872 254.462 148.675 256.87 150.28C259.335 151.885 261.227 154.15 262.546 157.074C263.922 159.941 264.61 163.352 264.61 167.308V195H250.592V169.286C250.592 166.591 249.961 164.47 248.7 162.922C247.496 161.317 245.804 160.514 243.626 160.514C242.078 160.514 240.702 160.887 239.498 161.632C238.351 162.377 237.434 163.409 236.746 164.728C236.058 165.989 235.714 167.423 235.714 169.028V195H221.696ZM291.067 195V130.672H305.085V154.15C306.461 152.201 308.209 150.681 310.331 149.592C312.509 148.445 314.975 147.872 317.727 147.872C320.995 147.872 323.833 148.675 326.241 150.28C328.706 151.885 330.598 154.15 331.917 157.074C333.293 159.941 333.981 163.352 333.981 167.308V195H319.963V169.286C319.963 166.591 319.332 164.47 318.071 162.922C316.867 161.317 315.175 160.514 312.997 160.514C311.449 160.514 310.073 160.887 308.869 161.632C307.722 162.377 306.805 163.409 306.117 164.728C305.429 165.989 305.085 167.423 305.085 169.028V195H291.067ZM356.563 196.29C354.27 196.29 352.148 195.917 350.199 195.172C348.25 194.484 346.558 193.509 345.125 192.248C343.692 190.987 342.574 189.496 341.771 187.776C340.968 185.999 340.567 184.078 340.567 182.014C340.567 179.09 341.341 176.51 342.889 174.274C344.494 172.038 346.702 170.318 349.511 169.114C352.378 167.853 355.703 167.222 359.487 167.222C361.322 167.222 362.984 167.365 364.475 167.652C365.966 167.939 367.485 168.397 369.033 169.028V166.706C369.033 164.47 368.374 162.693 367.055 161.374C365.794 159.998 364.074 159.31 361.895 159.31C360.29 159.31 358.828 159.711 357.509 160.514C356.19 161.259 355.273 162.291 354.757 163.61L342.201 161.46C342.66 159.453 343.491 157.619 344.695 155.956C345.899 154.293 347.39 152.86 349.167 151.656C351.002 150.452 353.008 149.535 355.187 148.904C357.366 148.216 359.688 147.872 362.153 147.872C365.192 147.872 367.944 148.359 370.409 149.334C372.932 150.251 375.11 151.599 376.945 153.376C378.78 155.096 380.184 157.16 381.159 159.568C382.134 161.919 382.621 164.527 382.621 167.394V195H370.065L369.721 189.582C368.574 191.589 366.854 193.223 364.561 194.484C362.268 195.688 359.602 196.29 356.563 196.29ZM354.327 181.154C354.327 182.53 354.872 183.677 355.961 184.594C357.108 185.454 358.598 185.884 360.433 185.884C362.096 185.884 363.558 185.54 364.819 184.852C366.138 184.164 367.17 183.218 367.915 182.014C368.66 180.81 369.033 179.463 369.033 177.972V177.542C368.001 177.083 366.883 176.739 365.679 176.51C364.475 176.223 363.271 176.08 362.067 176.08C359.659 176.08 357.767 176.539 356.391 177.456C355.015 178.373 354.327 179.606 354.327 181.154ZM413.186 196.29C409.861 196.29 406.765 195.717 403.898 194.57C401.089 193.366 398.623 191.703 396.502 189.582C394.438 187.403 392.804 184.881 391.6 182.014C390.453 179.09 389.88 175.908 389.88 172.468C389.88 168.971 390.482 165.731 391.686 162.75C392.89 159.769 394.553 157.16 396.674 154.924C398.795 152.688 401.289 150.968 404.156 149.764C407.08 148.503 410.205 147.872 413.53 147.872C417.027 147.872 420.209 148.531 423.076 149.85C426 151.169 428.437 153.032 430.386 155.44C432.393 157.848 433.769 160.686 434.514 163.954L420.926 166.19C420.181 164.413 419.149 163.037 417.83 162.062C416.511 161.03 414.992 160.514 413.272 160.514C411.495 160.514 409.918 161.03 408.542 162.062C407.223 163.037 406.163 164.413 405.36 166.19C404.557 167.967 404.156 169.974 404.156 172.21C404.156 174.446 404.529 176.424 405.274 178.144C406.077 179.864 407.166 181.211 408.542 182.186C409.918 183.161 411.495 183.648 413.272 183.648C415.049 183.648 416.655 183.161 418.088 182.186C419.579 181.211 420.668 179.807 421.356 177.972L434.944 180.208C434.428 182.616 433.482 184.823 432.106 186.83C430.787 188.779 429.153 190.471 427.204 191.904C425.312 193.337 423.162 194.427 420.754 195.172C418.346 195.917 415.823 196.29 413.186 196.29ZM441.399 195V130.672H455.417V167.48L470.553 149.162H486.463L468.919 169.458L488.527 195H471.241L455.417 172.468V195H441.399ZM500.875 195.344C499.27 195.344 497.808 194.971 496.489 194.226C495.228 193.423 494.224 192.391 493.479 191.13C492.734 189.811 492.361 188.378 492.361 186.83C492.361 185.282 492.734 183.877 493.479 182.616C494.224 181.297 495.228 180.265 496.489 179.52C497.808 178.717 499.27 178.316 500.875 178.316C502.48 178.316 503.914 178.717 505.175 179.52C506.494 180.265 507.526 181.297 508.271 182.616C509.016 183.877 509.389 185.282 509.389 186.83C509.389 188.378 509.016 189.811 508.271 191.13C507.526 192.391 506.494 193.423 505.175 194.226C503.914 194.971 502.48 195.344 500.875 195.344Z" fill="white"/>
<path d="M253.753 81.8872L279.186 107.153C280.263 108.223 281.722 108.822 283.242 108.819C284.762 108.816 286.218 108.211 287.29 107.136C288.362 106.062 288.963 104.607 288.96 103.091C288.957 101.574 288.35 100.122 287.273 99.0518L261.839 73.7856C260.762 72.7158 259.304 72.1167 257.784 72.1199C256.264 72.1231 254.808 72.7285 253.736 73.8028C252.663 74.8772 252.063 76.3325 252.066 77.8486C252.069 79.3647 252.676 80.8174 253.753 81.8872Z" fill="white"/>
<path d="M287.183 81.7624L261.856 107.136C261.325 107.668 260.695 108.091 260 108.379C259.305 108.668 258.561 108.818 257.808 108.819C257.056 108.821 256.31 108.675 255.614 108.389C254.919 108.103 254.286 107.683 253.753 107.153C253.22 106.624 252.796 105.994 252.507 105.302C252.217 104.609 252.067 103.866 252.066 103.115C252.064 102.364 252.211 101.62 252.497 100.926C252.784 100.232 253.205 99.601 253.736 99.069L266.399 86.3821L272.73 80.0386L279.062 73.6952C279.593 73.1632 280.224 72.7408 280.918 72.452C281.613 72.1632 282.358 72.0138 283.11 72.0122C283.863 72.0106 284.608 72.1569 285.304 72.4427C286 72.7285 286.632 73.1483 287.166 73.678C287.699 74.2077 288.122 74.837 288.412 75.5299C288.701 76.2229 288.851 76.9659 288.852 77.7166C288.854 78.4673 288.707 79.211 288.421 79.9052C288.134 80.5994 287.714 81.2304 287.183 81.7624Z" fill="white"/>
<path d="M287.183 81.7624L261.856 107.136C261.325 107.668 260.695 108.091 260 108.379C259.305 108.668 258.561 108.818 257.808 108.819C257.056 108.821 256.31 108.675 255.614 108.389C254.919 108.103 254.286 107.683 253.753 107.153C253.22 106.624 252.796 105.994 252.507 105.302C252.217 104.609 252.067 103.866 252.066 103.115C252.064 102.364 252.211 101.62 252.497 100.926C252.784 100.232 253.205 99.601 253.736 99.069L266.399 86.3821L272.73 80.0386L279.062 73.6952C279.593 73.1632 280.224 72.7408 280.918 72.452C281.613 72.1632 282.358 72.0138 283.11 72.0122C283.863 72.0106 284.608 72.1569 285.304 72.4427C286 72.7285 286.632 73.1483 287.166 73.678C287.699 74.2077 288.122 74.837 288.412 75.5299C288.701 76.2229 288.851 76.9659 288.852 77.7166C288.854 78.4673 288.707 79.211 288.421 79.9052C288.134 80.5994 287.714 81.2304 287.183 81.7624Z" fill="white"/>
<path d="M253.753 81.8872L279.186 107.153C280.263 108.223 281.722 108.822 283.242 108.819C284.762 108.816 286.218 108.211 287.29 107.136C288.362 106.062 288.963 104.607 288.96 103.091C288.957 101.574 288.35 100.122 287.273 99.0518L261.839 73.7856C260.762 72.7158 259.304 72.1167 257.784 72.1199C256.264 72.1231 254.808 72.7285 253.736 73.8028C252.663 74.8772 252.063 76.3325 252.066 77.8486C252.069 79.3647 252.676 80.8174 253.753 81.8872Z" fill="white"/>
<path d="M287.183 81.7624L261.856 107.136C261.325 107.668 260.695 108.091 260 108.379C259.305 108.668 258.561 108.818 257.808 108.819C257.056 108.821 256.31 108.675 255.614 108.389C254.919 108.103 254.286 107.683 253.753 107.153C253.22 106.624 252.796 105.994 252.507 105.302C252.217 104.609 252.067 103.866 252.066 103.115C252.064 102.364 252.211 101.62 252.497 100.926C252.784 100.232 253.205 99.601 253.736 99.069L266.399 86.3821L272.73 80.0386L279.062 73.6952C279.593 73.1632 280.224 72.7408 280.918 72.452C281.613 72.1632 282.358 72.0138 283.11 72.0122C283.863 72.0106 284.608 72.1569 285.304 72.4427C286 72.7285 286.632 73.1483 287.166 73.678C287.699 74.2077 288.122 74.837 288.412 75.5299C288.701 76.2229 288.851 76.9659 288.852 77.7166C288.854 78.4673 288.707 79.211 288.421 79.9052C288.134 80.5994 287.714 81.2304 287.183 81.7624Z" fill="white"/>
<path d="M287.183 81.7624L261.856 107.136C261.325 107.668 260.695 108.091 260 108.379C259.305 108.668 258.561 108.818 257.808 108.819C257.056 108.821 256.31 108.675 255.614 108.389C254.919 108.103 254.286 107.683 253.753 107.153C253.22 106.624 252.796 105.994 252.507 105.302C252.217 104.609 252.067 103.866 252.066 103.115C252.064 102.364 252.211 101.62 252.497 100.926C252.784 100.232 253.205 99.601 253.736 99.069L266.399 86.3821L272.73 80.0386L279.062 73.6952C279.593 73.1632 280.224 72.7408 280.918 72.452C281.613 72.1632 282.358 72.0138 283.11 72.0122C283.863 72.0106 284.608 72.1569 285.304 72.4427C286 72.7285 286.632 73.1483 287.166 73.678C287.699 74.2077 288.122 74.837 288.412 75.5299C288.701 76.2229 288.851 76.9659 288.852 77.7166C288.854 78.4673 288.707 79.211 288.421 79.9052C288.134 80.5994 287.714 81.2304 287.183 81.7624Z" fill="white"/>
</svg>
